<?xml version="1.0" encoding="utf-8"?>
<!-- Generator: Adobe Illustrator 24.3.0, SVG Export Plug-In . SVG Version: 6.00 Build 0)  -->
<svg version="1.1" xmlns="http://www.w3.org/2000/svg" xmlns:xlink="http://www.w3.org/1999/xlink" x="0px" y="0px"
	 viewBox="0 0 500 500" style="enable-background:new 0 0 500 500;" xml:space="preserve">
<style type="text/css">
	.st0{fill:#4F84CC;}
	.st1{fill:#0841A5;}
	.st2{opacity:0.2;fill:#007CA5;}
	.st3{fill:#334954;}
	.st4{fill:#FFFFFF;}
	.st5{fill:#F5B800;}
	.st6{fill:#EF9A00;}
	.st7{fill:#D9D1C2;}
	.st8{fill:#788E98;}
	.st9{fill:#313965;}
	.st10{opacity:0.49;}
</style>
<g id="OBJECTS">
	<g>
		<path class="st0" d="M236,271.2c2.9-2.3,12.9-6.2,13.1-17c-0.2-10.8-10.1-14.8-13.1-17c-3-2.3-13.1-6.7-25.6-23
			c-12.5-16.3-6.5-46.6-6.5-46.6h50.5h50.5c0,0,6.1,30.4-6.5,46.6c-12.5,16.3-22.7,20.7-25.6,23c-2.9,2.3-12.9,6.2-13.1,17
			c0.2,10.8,10,14.9,13.1,17c5.6,3.9,13.9,8.5,25.6,23c13,15.9,6.5,46.6,6.5,46.6h-50.5h-50.5c0,0-6.1-30.4,6.5-46.6
			C222.9,278,233.1,273.5,236,271.2z"/>
		<path class="st1" d="M260,300.8c-2.5-0.7-4.3-3.1-4.4-5.7c-0.8-13.5-0.6-44.2,4.9-51.1c1.9-2.4,4.6-4.3,6.5-5.6
			c16.7-11.4,29.2-21.4,33-34.5h-91.8c2.7,11.1,18.2,26.3,33.7,34.5c2.5,1.3,4.3,2.1,6.2,3.5c6.3,4.4,6.6,38.6,5.9,53
			c-0.1,2.7-2,5.1-4.6,5.8c-19.5,5.3-34.3,38.7-34.3,38.7l78.9,0C293.8,339.4,279.3,306.5,260,300.8z"/>
		<path class="st2" d="M236,271.2c2.9-2.3,12.9-6.2,13.1-17c-0.2-10.8-10.1-14.8-13.1-17c-3-2.3-13.1-6.7-25.6-23
			c-12.5-16.3-6.5-46.6-6.5-46.6h8.6c-1.1,10.6-4.8,30.9,4.9,43.5c13.5,17.6,24.5,22.3,27.7,24.8c3.2,2.4,10.8,6.7,11,18.4
			c-0.2,11.7-7.8,15.9-11,18.4c-3.2,2.5-14.1,7.2-27.7,24.8c-9.7,12.5-6,32.9-4.9,43.5h-8.6c0,0-6.1-30.4,6.5-46.6
			C222.9,278,233.1,273.5,236,271.2z"/>
		<path class="st3" d="M312.7,347.7c0,1.8-1.4,3.2-3.2,3.2H199.3c-1.8,0-3.2-1.5-3.2-3.2v-5c0-1.8,1.4-3.2,3.2-3.2h110.1
			c1.8,0,3.2,1.4,3.2,3.2V347.7z"/>
		<path class="st2" d="M306.1,177.4H202.7c0.4-5.8,1.2-9.8,1.2-9.8h50.5h50.5C304.9,167.6,305.7,171.6,306.1,177.4z"/>
		<path class="st2" d="M202.7,331h103.4c-0.4,5.8-1.2,9.8-1.2,9.8h-50.5h-50.5C203.9,340.9,203.1,336.9,202.7,331z"/>
		<path class="st3" d="M312.7,166.6c0,1.8-1.4,3.2-3.2,3.2H199.3c-1.8,0-3.2-1.5-3.2-3.2v-5c0-1.8,1.4-3.2,3.2-3.2h110.1
			c1.8,0,3.2,1.4,3.2,3.2V166.6z"/>
		<path class="st4" d="M302.9,181.4c-0.6,14.2-2.1,34.8-34.2,54.4C278.9,225.8,293.5,215,302.9,181.4z"/>
		<path class="st4" d="M270.3,272.8c14.7,9.4,31.7,23.8,32.1,40.8c0.2,6.7-6.6,5.4-6.6-0.8C295.7,306.6,291.2,287.5,270.3,272.8z"/>
		<g>
			<g>
				<g>
					<polygon class="st3" points="178.7,390.1 153.6,361.6 116.8,371 105.9,406.3 167.8,425.4 					"/>
				</g>
			</g>
			<g>
				<polygon class="st5" points="116.8,371 105.9,406.3 167.8,425.4 				"/>
			</g>
			<g>
				<polygon class="st5" points="178.7,390.1 105.9,406.3 167.8,425.4 				"/>
			</g>
			<g>
				<polygon class="st6" points="142.3,398.2 105.9,406.3 167.8,425.4 				"/>
			</g>
			<g>
				
					<rect x="140.5" y="355.4" transform="matrix(0.2952 -0.9555 0.9555 0.2952 -247.1437 390.6977)" class="st7" width="1.5" height="14.9"/>
			</g>
			<g>
				
					<rect x="150.2" y="350.6" transform="matrix(0.2952 -0.9554 0.9554 0.2952 -246.4101 404.4742)" class="st7" width="1.5" height="37.2"/>
			</g>
			<g>
				
					<rect x="149.2" y="353.7" transform="matrix(0.2952 -0.9554 0.9554 0.2952 -250.0444 405.7434)" class="st7" width="1.5" height="37.2"/>
			</g>
			<g>
				
					<rect x="148.3" y="356.8" transform="matrix(0.2952 -0.9554 0.9554 0.2952 -253.6787 407.0125)" class="st7" width="1.5" height="37.2"/>
			</g>
			<g>
				
					<rect x="147.3" y="359.9" transform="matrix(0.2952 -0.9554 0.9554 0.2952 -257.3131 408.2806)" class="st7" width="1.5" height="37.2"/>
			</g>
			<g>
				
					<rect x="146.4" y="363" transform="matrix(0.2952 -0.9554 0.9554 0.2952 -260.9474 409.5498)" class="st7" width="1.5" height="37.2"/>
			</g>
			<g>
				
					<rect x="145.4" y="366.1" transform="matrix(0.2952 -0.9554 0.9554 0.2952 -264.5818 410.8189)" class="st7" width="1.5" height="37.2"/>
			</g>
			<g>
				<path class="st0" d="M164.6,408.3L118.2,394l11.4-36.9c0.6-1.8,2.5-2.9,4.4-2.3l39.8,12.3c1.8,0.6,2.9,2.5,2.3,4.4L164.6,408.3z
					"/>
			</g>
			<g>
				<polygon class="st1" points="116.8,371 105.9,406.3 167.8,425.4 				"/>
			</g>
			<g>
				<polygon class="st1" points="178.7,390.1 105.9,406.3 167.8,425.4 				"/>
			</g>
			<g>
				<polygon class="st8" points="142.3,398.2 105.9,406.3 167.8,425.4 				"/>
			</g>
			<g>
				<g>
					
						<rect x="140.5" y="355.4" transform="matrix(0.2952 -0.9555 0.9555 0.2952 -247.1437 390.6977)" class="st4" width="1.5" height="14.9"/>
				</g>
				<g>
					
						<rect x="150.2" y="350.6" transform="matrix(0.2952 -0.9554 0.9554 0.2952 -246.4101 404.4742)" class="st4" width="1.5" height="37.2"/>
				</g>
				<g>
					
						<rect x="149.2" y="353.7" transform="matrix(0.2952 -0.9554 0.9554 0.2952 -250.0444 405.7434)" class="st4" width="1.5" height="37.2"/>
				</g>
				<g>
					
						<rect x="148.3" y="356.8" transform="matrix(0.2952 -0.9554 0.9554 0.2952 -253.6787 407.0125)" class="st4" width="1.5" height="37.2"/>
				</g>
				<g>
					
						<rect x="147.3" y="359.9" transform="matrix(0.2952 -0.9554 0.9554 0.2952 -257.3131 408.2806)" class="st4" width="1.5" height="37.2"/>
				</g>
				<g>
					
						<rect x="146.4" y="363" transform="matrix(0.2952 -0.9554 0.9554 0.2952 -260.9474 409.5498)" class="st4" width="1.5" height="37.2"/>
				</g>
				<g>
					
						<rect x="145.4" y="366.1" transform="matrix(0.2952 -0.9554 0.9554 0.2952 -264.5818 410.8189)" class="st4" width="1.5" height="37.2"/>
				</g>
			</g>
		</g>
		<g>
			<g>
				<g>
					<g>
						<g>
							<path class="st3" d="M414.5,251.6l-40.3-13.2c-2.5-0.8-3.9-3.5-3.1-6l15.9-48.6c0.8-2.5,3.5-3.9,6-3.1l40.3,13.2
								c2.5,0.8,3.9,3.5,3.1,6l-15.9,48.6C419.7,251,417,252.4,414.5,251.6z"/>
						</g>
					</g>
					<g>
						<g>
							<path class="st4" d="M410.2,245.1l-28.7-9.4c-2.4-0.8-3.9-3.1-3.2-5.1l13.5-41.1c0.7-2,3.2-3,5.6-2.2l28.7,9.4
								c2.4,0.8,3.9,3.1,3.2,5.1l-13.5,41.1C415.1,244.9,412.6,245.8,410.2,245.1z"/>
						</g>
					</g>
					<g>
						<g>
							<path class="st0" d="M416.8,195.4l-11.3-3.7c-0.8-0.3-1.2-1.1-1-1.9l0.5-1.7c0.3-0.8,1.1-1.2,1.9-1l11.3,3.7
								c0.8,0.3,1.2,1.1,1,1.9l-0.5,1.7C418.4,195.3,417.6,195.7,416.8,195.4z"/>
						</g>
					</g>
				</g>
				<path class="st1" d="M415.8,207.2l-16.4-5.3c-0.9-0.3-1.4-1.3-1.1-2.2l0.1-0.4c0.3-0.9,1.3-1.4,2.2-1.1l16.4,5.3
					c0.9,0.3,1.4,1.3,1.1,2.2L418,206C417.7,207,416.7,207.5,415.8,207.2z"/>
				<path class="st1" d="M413.7,213.7l-16.4-5.3c-0.9-0.3-1.4-1.3-1.1-2.2l0.1-0.4c0.3-0.9,1.3-1.4,2.2-1.1l16.4,5.3
					c0.9,0.3,1.4,1.3,1.1,2.2l-0.1,0.4C415.6,213.5,414.6,214,413.7,213.7z"/>
				<path class="st1" d="M411.5,220.2l-16.4-5.3c-0.9-0.3-1.4-1.3-1.1-2.2l0.1-0.4c0.3-0.9,1.3-1.4,2.2-1.1l16.4,5.3
					c0.9,0.3,1.4,1.3,1.1,2.2l-0.1,0.4C413.5,220,412.5,220.5,411.5,220.2z"/>
				<path class="st1" d="M409.4,226.8l-16.4-5.3c-0.9-0.3-1.4-1.3-1.1-2.2l0.1-0.4c0.3-0.9,1.3-1.4,2.2-1.1l16.4,5.3
					c0.9,0.3,1.4,1.3,1.1,2.2l-0.1,0.4C411.3,226.6,410.3,227.1,409.4,226.8z"/>
				<path class="st1" d="M407.2,233.6l-16.4-5.3c-0.9-0.3-1.4-1.3-1.1-2.2l0.1-0.4c0.3-0.9,1.3-1.4,2.2-1.1l16.4,5.3
					c0.9,0.3,1.4,1.3,1.1,2.2l-0.1,0.4C409.1,233.4,408.1,233.9,407.2,233.6z"/>
			</g>
		</g>
		<path class="st0" d="M425.5,296.4l-5.9,33.6c-0.5,2.8-3.3,4.6-6.2,4l-38.2-6.7c-3-0.5-5-3.2-4.5-5.9l5.9-33.6
			c0.5-2.8,3.3-4.6,6.2-4l38.2,6.7C423.9,291,426,293.7,425.5,296.4z"/>
		<path class="st1" d="M425.7,295l-2.1,11.9l-49-8.5l2.1-11.9c0.3-2,3-3.2,6-2.7l38.2,6.7C423.9,291,426.1,293,425.7,295z"/>
		<path class="st4" d="M382.3,310.5l-4.1-0.7c-0.3-0.1-0.5-0.4-0.5-0.7l0.5-2.7c0.1-0.3,0.4-0.5,0.7-0.5l4.1,0.7
			c0.3,0.1,0.5,0.4,0.5,0.7L383,310C382.9,310.3,382.6,310.6,382.3,310.5z"/>
		<path class="st4" d="M389.2,311.7l-4.1-0.7c-0.3-0.1-0.5-0.4-0.5-0.7l0.5-2.7c0.1-0.3,0.4-0.5,0.7-0.5l4.1,0.7
			c0.3,0.1,0.5,0.4,0.5,0.7l-0.5,2.7C389.8,311.5,389.5,311.8,389.2,311.7z"/>
		<path class="st4" d="M396.2,312.9l-4.1-0.7c-0.3-0.1-0.5-0.4-0.5-0.7l0.5-2.7c0.1-0.3,0.4-0.5,0.7-0.5l4.1,0.7
			c0.3,0.1,0.5,0.4,0.5,0.7l-0.5,2.7C396.8,312.8,396.5,313,396.2,312.9z"/>
		<path class="st4" d="M403.1,314.1l-4.1-0.7c-0.3-0.1-0.5-0.4-0.5-0.7l0.5-2.7c0.1-0.3,0.4-0.5,0.7-0.5l4.1,0.7
			c0.3,0.1,0.5,0.4,0.5,0.7l-0.5,2.7C403.7,314,403.4,314.2,403.1,314.1z"/>
		<path class="st4" d="M409.8,315.3l-4.1-0.7c-0.3-0.1-0.5-0.4-0.5-0.7l0.5-2.7c0.1-0.3,0.4-0.5,0.7-0.5l4.1,0.7
			c0.3,0.1,0.5,0.4,0.5,0.7l-0.5,2.7C410.4,315.1,410.1,315.3,409.8,315.3z"/>
		<path class="st4" d="M416.4,316.4l-4.1-0.7c-0.3-0.1-0.5-0.4-0.5-0.7l0.5-2.7c0.1-0.3,0.4-0.5,0.7-0.5l4.1,0.7
			c0.3,0.1,0.5,0.4,0.5,0.7l-0.5,2.7C417.1,316.3,416.8,316.5,416.4,316.4z"/>
		<path class="st4" d="M381.2,316.8l-4.1-0.7c-0.3-0.1-0.5-0.4-0.5-0.7l0.5-2.7c0.1-0.3,0.4-0.5,0.7-0.5l4.1,0.7
			c0.3,0.1,0.5,0.4,0.5,0.7l-0.5,2.7C381.8,316.6,381.5,316.8,381.2,316.8z"/>
		<path class="st4" d="M388.1,318l-4.1-0.7c-0.3-0.1-0.5-0.4-0.5-0.7l0.5-2.7c0.1-0.3,0.4-0.5,0.7-0.5l4.1,0.7
			c0.3,0.1,0.5,0.4,0.5,0.7l-0.5,2.7C388.7,317.8,388.4,318,388.1,318z"/>
		<path class="st4" d="M395.1,319.2l-4.1-0.7c-0.3-0.1-0.5-0.4-0.5-0.7l0.5-2.7c0.1-0.3,0.4-0.5,0.7-0.5l4.1,0.7
			c0.3,0.1,0.5,0.4,0.5,0.7l-0.5,2.7C395.7,319,395.4,319.2,395.1,319.2z"/>
		<path class="st4" d="M402,320.4l-4.1-0.7c-0.3-0.1-0.5-0.4-0.5-0.7l0.5-2.7c0.1-0.3,0.4-0.5,0.7-0.5l4.1,0.7
			c0.3,0.1,0.5,0.4,0.5,0.7l-0.5,2.7C402.6,320.2,402.3,320.5,402,320.4z"/>
		<path class="st4" d="M408.7,321.6l-4.1-0.7c-0.3-0.1-0.5-0.4-0.5-0.7l0.5-2.7c0.1-0.3,0.4-0.5,0.7-0.5l4.1,0.7
			c0.3,0.1,0.5,0.4,0.5,0.7l-0.5,2.7C409.3,321.4,409,321.6,408.7,321.6z"/>
		<path class="st4" d="M415.3,322.7l-4.1-0.7c-0.3-0.1-0.5-0.4-0.5-0.7l0.5-2.7c0.1-0.3,0.4-0.5,0.7-0.5l4.1,0.7
			c0.3,0.1,0.5,0.4,0.5,0.7l-0.5,2.7C416,322.6,415.7,322.8,415.3,322.7z"/>
		<path class="st4" d="M380.1,323.1l-4.1-0.7c-0.3-0.1-0.5-0.4-0.5-0.7l0.5-2.7c0.1-0.3,0.4-0.5,0.7-0.5l4.1,0.7
			c0.3,0.1,0.5,0.4,0.5,0.7l-0.5,2.7C380.7,322.9,380.4,323.1,380.1,323.1z"/>
		<path class="st4" d="M387,324.3l-4.1-0.7c-0.3-0.1-0.5-0.4-0.5-0.7l0.5-2.7c0.1-0.3,0.4-0.5,0.7-0.5l4.1,0.7
			c0.3,0.1,0.5,0.4,0.5,0.7l-0.5,2.7C387.6,324.1,387.3,324.3,387,324.3z"/>
		<path class="st4" d="M394,325.5l-4.1-0.7c-0.3-0.1-0.5-0.4-0.5-0.7l0.5-2.7c0.1-0.3,0.4-0.5,0.7-0.5l4.1,0.7
			c0.3,0.1,0.5,0.4,0.5,0.7l-0.5,2.7C394.6,325.3,394.3,325.5,394,325.5z"/>
		<path class="st4" d="M400.9,326.7l-4.1-0.7c-0.3-0.1-0.5-0.4-0.5-0.7l0.5-2.7c0.1-0.3,0.4-0.5,0.7-0.5l4.1,0.7
			c0.3,0.1,0.5,0.4,0.5,0.7l-0.5,2.7C401.5,326.5,401.2,326.7,400.9,326.7z"/>
		<path class="st4" d="M407.6,327.8l-4.1-0.7c-0.3-0.1-0.5-0.4-0.5-0.7l0.5-2.7c0.1-0.3,0.4-0.5,0.7-0.5l4.1,0.7
			c0.3,0.1,0.5,0.4,0.5,0.7l-0.5,2.7C408.2,327.7,407.9,327.9,407.6,327.8z"/>
		<path class="st4" d="M414.2,329l-4.1-0.7c-0.3-0.1-0.5-0.4-0.5-0.7l0.5-2.7c0.1-0.3,0.4-0.5,0.7-0.5l4.1,0.7
			c0.3,0.1,0.5,0.4,0.5,0.7l-0.5,2.7C414.9,328.8,414.6,329.1,414.2,329z"/>
		<path class="st9" d="M384.4,292.2L384.4,292.2c-1.4-0.3-2.4-1.6-2.2-3.1l1.3-7.5c0.3-1.4,1.6-2.4,3.1-2.2l0,0
			c1.4,0.3,2.4,1.6,2.2,3.1l-1.3,7.5C387.3,291.5,385.9,292.4,384.4,292.2z"/>
		<path class="st9" d="M400.5,295L400.5,295c-1.4-0.3-2.4-1.6-2.2-3.1l1.3-7.5c0.3-1.4,1.6-2.4,3.1-2.2h0c1.4,0.3,2.4,1.6,2.2,3.1
			l-1.3,7.5C403.3,294.3,401.9,295.2,400.5,295z"/>
		<path class="st9" d="M416.5,297.8L416.5,297.8c-1.4-0.3-2.4-1.6-2.2-3.1l1.3-7.5c0.3-1.4,1.6-2.4,3.1-2.2l0,0
			c1.4,0.3,2.4,1.6,2.2,3.1l-1.3,7.5C419.4,297.1,418,298,416.5,297.8z"/>
		<g>
			<g>
				
					<rect x="139.3" y="110.8" transform="matrix(0.8841 -0.4672 0.4672 0.8841 -41.6745 80.8332)" class="st1" width="5.6" height="27.4"/>
			</g>
		</g>
		<g>
			<g>
				
					<rect x="138.9" y="110.9" transform="matrix(0.8841 -0.4672 0.4672 0.8841 -41.3557 80.5461)" class="st0" width="5.6" height="25.6"/>
			</g>
		</g>
		<g>
			<g>
				
					<rect x="148.2" y="116.8" transform="matrix(0.8841 -0.4672 0.4672 0.8841 -41.1107 85.0895)" class="st1" width="5.6" height="17.3"/>
			</g>
		</g>
		<g>
			<g>
				
					<rect x="149" y="90.3" transform="matrix(0.8841 -0.4672 0.4672 0.8841 -34.3535 83.8076)" class="st1" width="5.6" height="41.8"/>
			</g>
		</g>
		<g>
			<g>
				
					<rect x="157.7" y="95.5" transform="matrix(0.8841 -0.4672 0.4672 0.8841 -33.6409 87.9333)" class="st1" width="5.6" height="32.6"/>
			</g>
		</g>
		<g>
			<g>
				
					<rect x="167.9" y="107.2" transform="matrix(0.8841 -0.4672 0.4672 0.8841 -34.1618 93.1587)" class="st1" width="5.6" height="16.5"/>
			</g>
		</g>
		<g>
			<g>
				
					<rect x="170.2" y="86.7" transform="matrix(0.8841 -0.4672 0.4672 0.8841 -28.5391 92.8959)" class="st1" width="5.6" height="34.7"/>
			</g>
		</g>
		<g>
			<g>
				
					<rect x="174.3" y="73.3" transform="matrix(0.8841 -0.4672 0.4672 0.8841 -24.2935 93.8606)" class="st1" width="5.6" height="45.2"/>
			</g>
		</g>
		<g>
			<g>
				
					<rect x="145.2" y="117.1" transform="matrix(0.8841 -0.4672 0.4672 0.8841 -38.8552 83.0715)" class="st0" width="5.6" height="5.6"/>
			</g>
		</g>
		<g>
			<g>
				
					<rect x="140" y="92.5" transform="matrix(0.8841 -0.4672 0.4672 0.8841 -27.4285 77.6223)" class="st0" width="5.6" height="3.2"/>
			</g>
		</g>
		<g>
			<g>
				
					<rect x="152.5" y="96.8" transform="matrix(0.8841 -0.4672 0.4672 0.8841 -29.6904 84.402)" class="st0" width="5.6" height="10.6"/>
			</g>
		</g>
		<g>
			<g>
				
					<rect x="164.5" y="100.9" transform="matrix(0.8841 -0.4672 0.4672 0.8841 -31.5021 90.782)" class="st0" width="5.6" height="16.1"/>
			</g>
		</g>
		<g>
			<g>
				
					<rect x="164" y="88.2" transform="matrix(0.8841 -0.4672 0.4672 0.8841 -23.7591 88.6246)" class="st0" width="5.6" height="8"/>
			</g>
		</g>
		<g>
			<g>
				
					<rect x="173.1" y="73.6" transform="matrix(0.8841 -0.4672 0.4672 0.8841 -23.3559 93.0197)" class="st0" width="5.6" height="39.9"/>
			</g>
		</g>
		<g>
			<g>
				<g>
					<g>
						<path class="st0" d="M118.6,162.4c-5.3-10-17.8-13.9-27.8-8.5c-10,5.3-13.9,17.8-8.5,27.8c3.9,7.3,11.4,11.2,19.1,10.9
							c0.8,3,8.9,9.1,13.6,6.6c4.7-2.5,3.4-13.6,2-14.9C121.5,178.2,122.5,169.7,118.6,162.4z"/>
					</g>
				</g>
			</g>
			<g>
				<g>
					<g>
						<path class="st1" d="M102.3,194.4l4.1,7.7l0,0c1.6,2.7,6.2,3,10.4,0.8c4.2-2.2,6.5-6.2,5.1-9l0,0l-4.1-7.7L102.3,194.4z"/>
					</g>
				</g>
			</g>
			<g>
				<g>
					<g>
						
							<rect x="102.6" y="192.2" transform="matrix(0.883 -0.4694 0.4694 0.883 -77.4773 74.8492)" class="st4" width="17.6" height="1.2"/>
					</g>
				</g>
			</g>
			<g class="st10">
				<path class="st4" d="M88.3,165.7c4.4,1.6,4.2,7.5-0.3,8.7c-0.7,0.2-1.5,0.2-2.2-0.1c-4.4-1.6-4.2-7.5,0.3-8.7
					C86.8,165.4,87.6,165.5,88.3,165.7z"/>
			</g>
		</g>
		<g>
			<g>
				<g>
					<path class="st0" d="M135,267.1l-20.4,13.8l-21.7-32.1l20.4-13.8c1.1-0.8,2.6-0.1,2.9,1.2l2.8,18.3l16,9.4
						C136,264.7,136.1,266.4,135,267.1z"/>
				</g>
			</g>
			<g>
				<g>
					<polygon class="st8" points="115.5,271.6 110.5,274.9 114.6,280.9 					"/>
				</g>
			</g>
			<g>
				<g>
					<path class="st1" d="M115.5,271.6l-23.2,15.7l-21.5-31.8l21.7-14.7c0.8-0.6,2-0.3,2.6,0.5L115.5,271.6z"/>
				</g>
			</g>
			<g>
				<g>
					<path class="st3" d="M111.4,321.3L111.4,321.3c-1.6,1.1-3.7,0.7-4.8-0.9l-42.7-63.1c-1.1-1.6-0.7-3.7,0.9-4.8l0,0
						c1.6-1.1,3.7-0.7,4.8,0.9l42.7,63.1C113.4,318.1,113,320.2,111.4,321.3z"/>
				</g>
			</g>
		</g>
		<g>
			<path class="st1" d="M357.5,118.4l-3.2-0.3c-0.2-1.4-0.5-2.7-1-4l2.6-1.9c0.2-0.2,0.3-0.5,0.2-0.8l-1.7-3
				c-0.1-0.3-0.5-0.4-0.8-0.3l-2.9,1.2c-0.7-1-1.6-1.9-2.5-2.7l1.4-2.8c0.1-0.3,0-0.6-0.2-0.8l-2.9-1.9c-0.3-0.2-0.6-0.1-0.8,0.1
				l-2,2.4c-1.6-0.7-3.3-1.2-5.1-1.5l-0.3-3.1c0-0.3-0.3-0.5-0.6-0.5h-3.4c-0.3,0-0.6,0.2-0.6,0.5l-0.3,3.1
				c-1.4,0.2-2.8,0.6-4.1,1.1l-1.8-2.6c-0.2-0.2-0.5-0.3-0.8-0.2l-3,1.7c-0.3,0.2-0.4,0.5-0.3,0.8l1.3,2.9c-1,0.7-1.8,1.6-2.6,2.5
				l-2.8-1.4c-0.3-0.1-0.6,0-0.8,0.2l-1.9,2.9c-0.2,0.3-0.1,0.6,0.1,0.8l2.5,2c-0.7,1.6-1.2,3.2-1.4,5l-3.2,0.3
				c-0.3,0-0.5,0.3-0.5,0.6v3.4c0,0.3,0.2,0.6,0.5,0.6l3.2,0.4c0.2,1.4,0.6,2.7,1.1,4l-2.6,1.9c-0.2,0.2-0.3,0.5-0.2,0.8l1.7,3
				c0.1,0.3,0.5,0.4,0.8,0.3l3-1.3c0.7,0.9,1.6,1.8,2.5,2.6l-1.5,2.9c-0.1,0.3,0,0.6,0.2,0.8l2.9,1.9c0.3,0.2,0.6,0.1,0.8-0.1
				l2.1-2.5c1.6,0.7,3.2,1.2,5,1.5l0.4,3.3c0,0.3,0.3,0.5,0.6,0.5h3.4c0.3,0,0.6-0.2,0.6-0.5l0.4-3.3c1.4-0.2,2.7-0.6,4-1.1l1.9,2.6
				c0.2,0.2,0.5,0.3,0.8,0.2l3-1.7c0.3-0.2,0.4-0.5,0.3-0.8l-1.3-3c0.9-0.7,1.8-1.6,2.6-2.5l2.9,1.4c0.3,0.1,0.6,0,0.8-0.2l1.9-2.9
				c0.2-0.3,0.1-0.6-0.1-0.8l-2.5-2c0.7-1.5,1.2-3.2,1.5-4.9l3.2-0.4c0.3,0,0.5-0.3,0.5-0.6V119C358,118.7,357.8,118.4,357.5,118.4z
				 M336,131.5c-6,0-10.8-4.9-10.8-10.8s4.9-10.8,10.8-10.8s10.8,4.9,10.8,10.8S342,131.5,336,131.5z"/>
			<path class="st3" d="M391.6,113.3l-2.4-0.3c-0.1-1.1-0.4-2.1-0.8-3l2-1.4c0.2-0.1,0.2-0.4,0.1-0.6l-1.3-2.3
				c-0.1-0.2-0.4-0.3-0.6-0.2l-2.2,0.9c-0.6-0.7-1.2-1.4-1.9-2l1.1-2.1c0.1-0.2,0-0.5-0.2-0.6l-2.2-1.4c-0.2-0.1-0.5-0.1-0.6,0.1
				l-1.5,1.9c-1.2-0.6-2.5-0.9-3.8-1.1l-0.3-2.4c0-0.2-0.2-0.4-0.5-0.4H374c-0.2,0-0.4,0.2-0.5,0.4l-0.3,2.4
				c-1.1,0.2-2.1,0.4-3.1,0.8l-1.4-1.9c-0.1-0.2-0.4-0.2-0.6-0.1l-2.3,1.3c-0.2,0.1-0.3,0.4-0.2,0.6l1,2.2c-0.7,0.6-1.4,1.2-2,1.9
				l-2.2-1.1c-0.2-0.1-0.5,0-0.6,0.2l-1.4,2.2c-0.1,0.2-0.1,0.5,0.1,0.6l1.9,1.5c-0.5,1.2-0.9,2.5-1.1,3.8l-2.4,0.3
				c-0.2,0-0.4,0.2-0.4,0.5v2.6c0,0.2,0.2,0.4,0.4,0.5l2.4,0.3c0.2,1,0.4,2.1,0.8,3l-2,1.4c-0.2,0.1-0.2,0.4-0.1,0.6l1.3,2.3
				c0.1,0.2,0.4,0.3,0.6,0.2l2.3-1c0.6,0.7,1.2,1.4,1.9,2l-1.1,2.2c-0.1,0.2,0,0.5,0.2,0.6l2.2,1.4c0.2,0.1,0.5,0.1,0.6-0.1l1.6-1.9
				c1.2,0.5,2.5,0.9,3.8,1.1l0.3,2.5c0,0.2,0.2,0.4,0.5,0.4h2.6c0.2,0,0.4-0.2,0.5-0.4l0.3-2.5c1.1-0.2,2.1-0.4,3-0.8l1.4,2
				c0.1,0.2,0.4,0.2,0.6,0.1l2.3-1.3c0.2-0.1,0.3-0.4,0.2-0.6l-1-2.3c0.7-0.6,1.4-1.2,2-1.9l2.2,1.1c0.2,0.1,0.5,0,0.6-0.2l1.4-2.2
				c0.1-0.2,0.1-0.5-0.1-0.6l-1.9-1.5c0.5-1.2,0.9-2.4,1.1-3.8l2.4-0.3c0.2,0,0.4-0.2,0.4-0.5v-2.6
				C392,113.5,391.8,113.3,391.6,113.3z M376.7,123.2c-5.6,0.9-10.4-3.9-9.5-9.5c0.6-3.4,3.3-6.2,6.7-6.7c5.6-0.9,10.4,3.9,9.5,9.5
				C382.9,119.8,380.1,122.6,376.7,123.2z"/>
			<path class="st0" d="M377.9,142.8l-1.8-0.2c-0.1-0.8-0.3-1.5-0.6-2.2l1.5-1c0.1-0.1,0.2-0.3,0.1-0.4l-0.9-1.7
				c-0.1-0.1-0.3-0.2-0.4-0.1l-1.6,0.7c-0.4-0.5-0.9-1-1.4-1.5l0.8-1.6c0.1-0.2,0-0.3-0.1-0.4l-1.6-1c-0.1-0.1-0.3-0.1-0.4,0.1
				l-1.1,1.4c-0.9-0.4-1.8-0.7-2.8-0.8l-0.2-1.8c0-0.2-0.2-0.3-0.3-0.3h-1.9c-0.2,0-0.3,0.1-0.3,0.3l-0.2,1.8
				c-0.8,0.1-1.6,0.3-2.3,0.6l-1-1.4c-0.1-0.1-0.3-0.2-0.4-0.1l-1.7,1c-0.1,0.1-0.2,0.3-0.1,0.4l0.7,1.6c-0.5,0.4-1,0.9-1.5,1.4
				l-1.6-0.8c-0.2-0.1-0.3,0-0.4,0.1l-1,1.6c-0.1,0.1-0.1,0.3,0.1,0.4l1.4,1.1c-0.4,0.9-0.7,1.8-0.8,2.8l-1.8,0.2
				c-0.2,0-0.3,0.2-0.3,0.3v1.9c0,0.2,0.1,0.3,0.3,0.3l1.8,0.2c0.1,0.8,0.3,1.5,0.6,2.2l-1.5,1.1c-0.1,0.1-0.2,0.3-0.1,0.4l0.9,1.7
				c0.1,0.1,0.3,0.2,0.4,0.1l1.7-0.7c0.4,0.5,0.9,1,1.4,1.5l-0.8,1.6c-0.1,0.2,0,0.3,0.1,0.4l1.6,1c0.1,0.1,0.3,0.1,0.4-0.1l1.2-1.4
				c0.9,0.4,1.8,0.7,2.8,0.8l0.2,1.8c0,0.2,0.2,0.3,0.3,0.3h1.9c0.2,0,0.3-0.1,0.3-0.3l0.2-1.8c0.8-0.1,1.5-0.3,2.3-0.6l1.1,1.5
				c0.1,0.1,0.3,0.2,0.4,0.1l1.7-1c0.1-0.1,0.2-0.3,0.1-0.4l-0.7-1.7c0.5-0.4,1-0.9,1.5-1.4l1.6,0.8c0.2,0.1,0.3,0,0.4-0.1l1-1.6
				c0.1-0.1,0.1-0.3-0.1-0.4l-1.4-1.1c0.4-0.9,0.7-1.8,0.8-2.8l1.8-0.2c0.2,0,0.3-0.2,0.3-0.3v-1.9
				C378.2,142.9,378.1,142.8,377.9,142.8z M365.9,150.1c-3.4,0-6.1-2.7-6.1-6.1c0-3.4,2.7-6.1,6.1-6.1c3.4,0,6.1,2.7,6.1,6.1
				C372,147.4,369.3,150.1,365.9,150.1z"/>
		</g>
		<g>
			<path class="st1" d="M254.9,90.3l-11.2-19.9c-6.9,3.9-11.6,11.3-11.6,19.9c0,12.6,10.2,22.8,22.8,22.8c10.2,0,18.8-6.7,21.7-15.9
				L254.9,90.3z"/>
			<path class="st0" d="M255.1,63.8c-4.1,0-7.9,1.1-11.2,2.9l11.2,19.9l0.1,0l9.5-20.7C261.8,64.5,258.5,63.8,255.1,63.8z"/>
			<path class="st3" d="M281.2,88.4c0-9.1-5.4-17-13.1-20.7l-9.5,20.7l21.6,6.8C280.9,93.1,281.2,90.8,281.2,88.4z"/>
		</g>
		<g>
			<path class="st1" d="M243.9,428.5c0,1.8,1.4,3.3,3.2,3.3h19.5l10.8,11.9l-0.7-11.9h4c1.8,0,3.2-1.5,3.2-3.3v-24.2
				c0-1.8-1.4-3.3-3.2-3.3h-33.6c-1.8,0-3.2,1.5-3.2,3.3V428.5z"/>
			<path class="st3" d="M243.9,404.5v24.3h27.3c1.9,0,3.5-1.5,3.5-3.5V401c0,0,0,0,0-0.1h-27.3C245.4,401,243.9,402.6,243.9,404.5z"
				/>
			<path class="st0" d="M269.9,422.3c0,1.9-1.6,3.5-3.5,3.5H243l-12,12.6l0.8-12.6h-4.5c-1.9,0-3.5-1.6-3.5-3.5v-25.7
				c0-1.9,1.6-3.5,3.5-3.5h39c1.9,0,3.5,1.6,3.5,3.5V422.3z"/>
			<g>
				<path class="st4" d="M240.8,409.4c0,1.5-1.2,2.7-2.7,2.7c-1.5,0-2.7-1.2-2.7-2.7c0-1.5,1.2-2.7,2.7-2.7
					C239.6,406.7,240.8,407.9,240.8,409.4z"/>
				<path class="st4" d="M249.6,409.4c0,1.5-1.2,2.7-2.7,2.7c-1.5,0-2.7-1.2-2.7-2.7c0-1.5,1.2-2.7,2.7-2.7
					C248.3,406.7,249.6,407.9,249.6,409.4z"/>
				<path class="st4" d="M258.3,409.4c0,1.5-1.2,2.7-2.7,2.7c-1.5,0-2.7-1.2-2.7-2.7c0-1.5,1.2-2.7,2.7-2.7
					C257.1,406.7,258.3,407.9,258.3,409.4z"/>
			</g>
		</g>
		<g>
			<g>
				<path class="st1" d="M351.1,422.4c-13.9,0-25.3-11.3-25.3-25.3c0-13.9,11.3-25.3,25.3-25.3c13.9,0,25.3,11.3,25.3,25.3
					C376.4,411,365.1,422.4,351.1,422.4z M351.1,376.5c-11.4,0-20.6,9.2-20.6,20.6c0,11.4,9.2,20.6,20.6,20.6
					c11.4,0,20.6-9.2,20.6-20.6C371.7,385.7,362.5,376.5,351.1,376.5z"/>
			</g>
			<g>
				<path class="st1" d="M351.1,422.4c-13.9,0-25.3-11.3-25.3-25.3c0-13.9,11.3-25.3,25.3-25.3c13.9,0,25.3,11.3,25.3,25.3
					C376.4,411,365.1,422.4,351.1,422.4z M351.1,377.3c-10.9,0-19.8,8.9-19.8,19.8s8.9,19.8,19.8,19.8c10.9,0,19.8-8.9,19.8-19.8
					S362,377.3,351.1,377.3z"/>
			</g>
			<g>
				<path class="st1" d="M351.1,413.9c-9.3,0-16.8-7.5-16.8-16.8c0-9.3,7.5-16.8,16.8-16.8c9.3,0,16.8,7.5,16.8,16.8
					C367.9,406.3,360.4,413.9,351.1,413.9z M351.1,382.6c-8,0-14.4,6.5-14.4,14.4c0,8,6.5,14.4,14.4,14.4s14.4-6.5,14.4-14.4
					C365.6,389.1,359.1,382.6,351.1,382.6z"/>
			</g>
			<g>
				<path class="st1" d="M351.1,407.3c-5.6,0-10.2-4.6-10.2-10.2c0-5.6,4.6-10.2,10.2-10.2c5.6,0,10.2,4.6,10.2,10.2
					C361.3,402.7,356.7,407.3,351.1,407.3z M351.1,389.3c-4.3,0-7.8,3.5-7.8,7.8c0,4.3,3.5,7.8,7.8,7.8s7.8-3.5,7.8-7.8
					C359,392.8,355.4,389.3,351.1,389.3z"/>
			</g>
			<g>
				<path class="st1" d="M351.1,400.2c-1.7,0-3.1-1.4-3.1-3.1c0-1.7,1.4-3.1,3.1-3.1c1.7,0,3.1,1.4,3.1,3.1
					C354.2,398.8,352.8,400.2,351.1,400.2z"/>
			</g>
			<g>
				<path class="st0" d="M369.2,374.3l-18.6,22.2c-0.3,0.3-0.2,0.8,0.1,1.1l19.5-23.4C369.9,373.9,369.4,374,369.2,374.3z"/>
				<path class="st3" d="M370.2,374.1l-19.5,23.4c0.3,0.3,0.8,0.2,1.1-0.1l18.6-22.2C370.6,374.9,370.6,374.5,370.2,374.1
					C370.2,374.2,370.2,374.2,370.2,374.1z"/>
			</g>
			<polygon class="st0" points="367.8,375.9 362.8,381.9 361.8,375 366.8,369 			"/>
			<polygon class="st3" points="369.1,376.7 364.1,382.7 371.1,382.5 376.1,376.6 			"/>
		</g>
		<g>
			<path class="st3" d="M292.5,116c0,0.9-0.7,1.6-1.6,1.6c-0.9,0-1.6-0.7-1.6-1.6c0-0.9,0.7-1.6,1.6-1.6
				C291.8,114.4,292.5,115.1,292.5,116z"/>
			<path class="st3" d="M324.2,77.3c0,0.4-0.4,0.8-0.8,0.8c-0.4,0-0.8-0.4-0.8-0.8c0-0.4,0.4-0.8,0.8-0.8
				C323.9,76.5,324.2,76.8,324.2,77.3z"/>
			<path class="st3" d="M195.1,62.8c0,0.6-0.5,1.2-1.2,1.2c-0.6,0-1.2-0.5-1.2-1.2c0-0.6,0.5-1.2,1.2-1.2
				C194.6,61.6,195.1,62.1,195.1,62.8z"/>
			<path class="st3" d="M139.9,156.7c0,0.9-0.7,1.6-1.6,1.6s-1.6-0.7-1.6-1.6s0.7-1.6,1.6-1.6S139.9,155.8,139.9,156.7z"/>
			<path class="st3" d="M154,293.7c0,1.1-0.9,2-2,2s-2-0.9-2-2s0.9-2,2-2S154,292.6,154,293.7z"/>
			<circle class="st3" cx="75.7" cy="207.6" r="1.6"/>
			<circle class="st3" cx="201.4" cy="397.8" r="2"/>
			<path class="st3" d="M82.8,368c0,1.3-1.1,2.3-2.3,2.3s-2.3-1.1-2.3-2.3c0-1.3,1.1-2.3,2.3-2.3S82.8,366.7,82.8,368z"/>
			<path class="st3" d="M377.5,349.2c0,1.3-1.1,2.3-2.3,2.3c-1.3,0-2.3-1.1-2.3-2.3c0-1.3,1.1-2.3,2.3-2.3
				C376.4,346.9,377.5,347.9,377.5,349.2z"/>
			<circle class="st3" cx="295.7" cy="440.4" r="1.6"/>
			<path class="st3" d="M437.3,266.3c0,0.9-0.7,1.6-1.6,1.6c-0.9,0-1.6-0.7-1.6-1.6s0.7-1.6,1.6-1.6
				C436.6,264.7,437.3,265.4,437.3,266.3z"/>
			<path class="st3" d="M413.5,153.2c0,1.1-0.9,2-2,2c-1.1,0-2-0.9-2-2c0-1.1,0.9-2,2-2C412.6,151.2,413.5,152.1,413.5,153.2z"/>
		</g>
		<path class="st1" d="M212.6,98.4h-1.9v-1.9c0-0.5-0.4-0.9-0.9-0.9c-0.5,0-0.9,0.4-0.9,0.9v1.9H207c-0.5,0-0.9,0.4-0.9,0.9
			c0,0.5,0.4,0.9,0.9,0.9h1.9v1.9c0,0.5,0.4,0.9,0.9,0.9c0.5,0,0.9-0.4,0.9-0.9v-1.9h1.9c0.5,0,0.9-0.4,0.9-0.9
			C213.6,98.8,213.1,98.4,212.6,98.4z"/>
		<path class="st1" d="M306.7,66.2h-1.9v-1.9c0-0.5-0.4-0.9-0.9-0.9c-0.5,0-0.9,0.4-0.9,0.9v1.9h-1.9c-0.5,0-0.9,0.4-0.9,0.9
			c0,0.5,0.4,0.9,0.9,0.9h1.9v1.9c0,0.5,0.4,0.9,0.9,0.9c0.5,0,0.9-0.4,0.9-0.9V68h1.9c0.5,0,0.9-0.4,0.9-0.9
			C307.6,66.6,307.2,66.2,306.7,66.2z"/>
		<path class="st1" d="M366.2,180.5h-1.9v-1.9c0-0.5-0.4-0.9-0.9-0.9c-0.5,0-0.9,0.4-0.9,0.9v1.9h-1.9c-0.5,0-0.9,0.4-0.9,0.9
			c0,0.5,0.4,0.9,0.9,0.9h1.9v1.9c0,0.5,0.4,0.9,0.9,0.9c0.5,0,0.9-0.4,0.9-0.9v-1.9h1.9c0.5,0,0.9-0.4,0.9-0.9
			C367.2,180.9,366.7,180.5,366.2,180.5z"/>
		<path class="st1" d="M375.9,261.4h-1.9v-1.9c0-0.5-0.4-0.9-0.9-0.9c-0.5,0-0.9,0.4-0.9,0.9v1.9h-1.9c-0.5,0-0.9,0.4-0.9,0.9
			c0,0.5,0.4,0.9,0.9,0.9h1.9v1.9c0,0.5,0.4,0.9,0.9,0.9c0.5,0,0.9-0.4,0.9-0.9v-1.9h1.9c0.5,0,0.9-0.4,0.9-0.9
			C376.9,261.9,376.4,261.4,375.9,261.4z"/>
		<path class="st1" d="M405.7,362.8h-1.9V361c0-0.5-0.4-0.9-0.9-0.9c-0.5,0-0.9,0.4-0.9,0.9v1.9h-1.9c-0.5,0-0.9,0.4-0.9,0.9
			c0,0.5,0.4,0.9,0.9,0.9h1.9v1.9c0,0.5,0.4,0.9,0.9,0.9c0.5,0,0.9-0.4,0.9-0.9v-1.9h1.9c0.5,0,0.9-0.4,0.9-0.9
			C406.6,363.3,406.2,362.8,405.7,362.8z"/>
		<path class="st1" d="M310.6,420.5h-1.9v-1.9c0-0.5-0.4-0.9-0.9-0.9s-0.9,0.4-0.9,0.9v1.9H305c-0.5,0-0.9,0.4-0.9,0.9
			c0,0.5,0.4,0.9,0.9,0.9h1.9v1.9c0,0.5,0.4,0.9,0.9,0.9s0.9-0.4,0.9-0.9v-1.9h1.9c0.5,0,0.9-0.4,0.9-0.9
			C311.5,420.9,311.1,420.5,310.6,420.5z"/>
		<path class="st1" d="M194.2,436.6h-1.9v-1.9c0-0.5-0.4-0.9-0.9-0.9c-0.5,0-0.9,0.4-0.9,0.9v1.9h-1.9c-0.5,0-0.9,0.4-0.9,0.9
			c0,0.5,0.4,0.9,0.9,0.9h1.9v1.9c0,0.5,0.4,0.9,0.9,0.9c0.5,0,0.9-0.4,0.9-0.9v-1.9h1.9c0.5,0,0.9-0.4,0.9-0.9
			C195.1,437,194.7,436.6,194.2,436.6z"/>
		<path class="st1" d="M74.4,327.3h-1.9v-1.9c0-0.5-0.4-0.9-0.9-0.9c-0.5,0-0.9,0.4-0.9,0.9v1.9h-1.9c-0.5,0-0.9,0.4-0.9,0.9
			c0,0.5,0.4,0.9,0.9,0.9h1.9v1.9c0,0.5,0.4,0.9,0.9,0.9c0.5,0,0.9-0.4,0.9-0.9v-1.9h1.9c0.5,0,0.9-0.4,0.9-0.9
			C75.3,327.7,74.9,327.3,74.4,327.3z"/>
		<path class="st1" d="M135.2,217.5h-1.9v-1.9c0-0.5-0.4-0.9-0.9-0.9c-0.5,0-0.9,0.4-0.9,0.9v1.9h-1.9c-0.5,0-0.9,0.4-0.9,0.9
			s0.4,0.9,0.9,0.9h1.9v1.9c0,0.5,0.4,0.9,0.9,0.9c0.5,0,0.9-0.4,0.9-0.9v-1.9h1.9c0.5,0,0.9-0.4,0.9-0.9S135.7,217.5,135.2,217.5z"
			/>
		<path class="st1" d="M112.6,121h-1.9v-1.9c0-0.5-0.4-0.9-0.9-0.9c-0.5,0-0.9,0.4-0.9,0.9v1.9H107c-0.5,0-0.9,0.4-0.9,0.9
			c0,0.5,0.4,0.9,0.9,0.9h1.9v1.9c0,0.5,0.4,0.9,0.9,0.9c0.5,0,0.9-0.4,0.9-0.9v-1.9h1.9c0.5,0,0.9-0.4,0.9-0.9
			C113.5,121.4,113.1,121,112.6,121z"/>
	</g>
</g>
<g id="DESIGNED_BY_FREEPIK">
</g>
</svg>
